# xmcd
#
# Track frame offsets: 
#        150
#        13536
#        24812
#        36353
#        54951
#        66757
#        80827
#        94500
#        111902
#        121744
#        132204
#        142645
#        159574
#        171681
#        181059
#        192634
#        204766
#        214675
#        231463
#        244554
#
# Disc length: 3484 seconds
#
# Revision: 0
# Processed by: cddbd v1.5.2PL0 Copyright (c) Steve Scherf et al.
# Submitted via: ExactAudioCopy v0.99pb5
#
DISCID=090d9a14
DTITLE=Various Artist - Tell It LikeIt Is - Legends Of Soul CD2
DYEAR=2009
DGENRE=Soul
TTITLE0=Eddie Floyd/Knock On Wood
TTITLE1=John Lee Hooker/Boom Boom
TTITLE2=Maxine Brown/Oh No Not My Baby
TTITLE3=Ben E King/Supernatural Thing
TTITLE4=Ray Charles/If I Give You My Love
TTITLE5=The Thymes/People
TTITLE6=Nina Simone/Ain't Go No I Got Life
TTITLE7=Ike and Tina Turner/River Deep Mountain High
TTITLE8=Wilson Pickett/I'm Gonna Love You
TTITLE9=The Drifters/Up On The Roof
TTITLE10=Eddie Floyd/Bring It On Home To Me
TTITLE11=Brook Benton/Rainy Night In Georgia
TTITLE12=Sam and Dave/Soothe Me
TTITLE13=Al Jarreau/Ain't No Sunshine
TTITLE14=Martha Reeves and Vandellas/Dancing In The Streets
TTITLE15=Aaron Veville/Tell It Like It Is
TTITLE16=Betty Everett/It's In His Kiss
TTITLE17=Lou Rawls/When A Man Loves A Woman
TTITLE18=Esther Phillips/Feel Like I Want To Cry
TTITLE19=Solomon Burke/Hold On I'm Coming
EXTD=
EXTT0=
EXTT1=
EXTT2=
EXTT3=
EXTT4=
EXTT5=
EXTT6=
EXTT7=
EXTT8=
EXTT9=
EXTT10=
EXTT11=
EXTT12=
EXTT13=
EXTT14=
EXTT15=
EXTT16=
EXTT17=
EXTT18=
EXTT19=
PLAYORDER=
